<svg xmlns="http://www.w3.org/2000/svg" version="1.1" xmlns:xlink="http://www.w3.org/1999/xlink" xmlns:svgjs="http://svgjs.dev/svgjs" viewBox="0 0 7.19380225088217 2.075079406509012"><g transform="matrix(1,0,0,1,1.8578739698142428,0.33615112544108494)"><rect width="7.19380225088217" height="2.075079406509012" x="-1.8578739698142428" y="-0.33615112544108483" fill="#1e40af"></rect><g><path d=" M 0.0915 1.095 L 0.0915 0.030000000000000027 L 0.5805 0.030000000000000027 Q 0.6585 0.030000000000000027 0.7245 0.06149999999999989 Q 0.7905 0.09299999999999997 0.8385 0.14625 Q 0.8865000000000001 0.1994999999999999 0.9127500000000001 0.26549999999999996 Q 0.9390000000000001 0.3314999999999999 0.9390000000000001 0.3989999999999999 Q 0.9390000000000001 0.4604999999999999 0.921 0.5175 Q 0.903 0.5745 0.8685 0.62175 Q 0.834 0.669 0.786 0.7035 L 1.0110000000000001 1.095 L 0.6900000000000001 1.095 L 0.5025000000000001 0.768 L 0.384 0.768 L 0.384 1.095 Z M 0.384 0.513 L 0.5685 0.513 Q 0.5865 0.513 0.603 0.49949999999999994 Q 0.6195 0.486 0.63075 0.4604999999999999 Q 0.642 0.43499999999999994 0.642 0.3989999999999999 Q 0.642 0.36149999999999993 0.62925 0.33675 Q 0.6165 0.31199999999999994 0.59775 0.2985 Q 0.579 0.2849999999999999 0.561 0.2849999999999999 L 0.384 0.2849999999999999 Z M 1.3650000000000002 0.030000000000000027 L 1.6920000000000002 0.030000000000000027 L 2.031 1.095 L 1.734 1.095 L 1.6695000000000002 0.8865 L 1.3860000000000001 0.8865 L 1.323 1.095 L 1.0245000000000002 1.095 Z M 1.6230000000000002 0.6915 L 1.5285000000000002 0.3165 L 1.4295 0.6915 Z M 2.0325 0.5535 Q 2.0325 0.45599999999999996 2.0692500000000003 0.36224999999999996 Q 2.106 0.26849999999999996 2.1765 0.19199999999999995 Q 2.247 0.11549999999999994 2.34825 0.06974999999999998 Q 2.4495 0.02400000000000002 2.577 0.02400000000000002 Q 2.73 0.02400000000000002 2.8440000000000003 0.08775 Q 2.958 0.15149999999999997 3.0135 0.25649999999999995 L 2.79 0.4155 Q 2.7705 0.363 2.73375 0.3344999999999999 Q 2.697 0.30599999999999994 2.65425 0.29474999999999996 Q 2.6115 0.2835 2.571 0.2835 Q 2.508 0.2835 2.46225 0.3082499999999999 Q 2.4165 0.33299999999999996 2.38725 0.37349999999999994 Q 2.358 0.4139999999999999 2.34375 0.4634999999999999 Q 2.3295 0.513 2.3295 0.5625 Q 2.3295 0.6179999999999999 2.346 0.669 Q 2.3625 0.72 2.394 0.7597499999999999 Q 2.4255 0.7995 2.47125 0.822 Q 2.517 0.8445 2.574 0.8445 Q 2.6145 0.8445 2.6565000000000003 0.83175 Q 2.6985 0.819 2.733 0.7905 Q 2.7675 0.762 2.7855 0.714 L 3.024 0.8564999999999999 Q 2.9925 0.9345 2.919 0.99 Q 2.8455 1.0454999999999999 2.7525 1.0747499999999999 Q 2.6595 1.1039999999999999 2.568 1.1039999999999999 Q 2.4495 1.1039999999999999 2.3512500000000003 1.05675 Q 2.253 1.0095 2.18175 0.93075 Q 2.1105 0.852 2.0715 0.7537499999999999 Q 2.0325 0.6555 2.0325 0.5535 Z M 3.1425 1.095 L 3.1425 0.030000000000000027 L 3.435 0.030000000000000027 L 3.435 0.43499999999999994 L 3.7590000000000003 0.030000000000000027 L 4.089 0.030000000000000027 L 3.702 0.507 L 4.116 1.095 L 3.7800000000000002 1.095 L 3.516 0.7035 L 3.435 0.7875 L 3.435 1.095 Z M 4.8375 0.378 Q 4.8375 0.378 4.812 0.363 Q 4.7865 0.348 4.7445 0.32924999999999993 Q 4.7025 0.3105 4.6530000000000005 0.2955 Q 4.6035 0.28049999999999997 4.5555 0.28049999999999997 Q 4.518 0.28049999999999997 4.494 0.2925 Q 4.47 0.3045 4.47 0.33299999999999996 Q 4.47 0.36 4.494 0.37649999999999995 Q 4.518 0.3929999999999999 4.56225 0.4065 Q 4.6065000000000005 0.41999999999999993 4.668 0.4395 Q 4.767 0.4694999999999999 4.839 0.5085 Q 4.911 0.5475 4.95 0.60825 Q 4.989 0.669 4.989 0.7695 Q 4.989 0.8654999999999999 4.9545 0.93075 Q 4.92 0.996 4.8615 1.035 Q 4.803 1.074 4.731 1.09125 Q 4.659 1.1085 4.584 1.1085 Q 4.5075 1.1085 4.42425 1.0927499999999999 Q 4.341 1.077 4.263 1.04925 Q 4.185 1.0215 4.1205 0.984 L 4.2465 0.7275 Q 4.2465 0.7275 4.2765 0.7454999999999999 Q 4.3065 0.7635 4.356 0.786 Q 4.4055 0.8085 4.46625 0.8265 Q 4.527 0.8445 4.5885 0.8445 Q 4.6365 0.8445 4.65525 0.83175 Q 4.674 0.819 4.674 0.798 Q 4.674 0.7665 4.641 0.74925 Q 4.608 0.732 4.55475 0.7162499999999999 Q 4.5015 0.7004999999999999 4.437 0.6795 Q 4.344 0.6479999999999999 4.284 0.60825 Q 4.224 0.5685 4.1955 0.5137499999999999 Q 4.167 0.45899999999999996 4.167 0.381 Q 4.167 0.26249999999999996 4.2225 0.18299999999999994 Q 4.278 0.10349999999999993 4.36875 0.062249999999999917 Q 4.4595 0.020999999999999908 4.5645 0.020999999999999908 Q 4.6425 0.020999999999999908 4.71525 0.03974999999999995 Q 4.788 0.058499999999999996 4.85175 0.08549999999999991 Q 4.9155 0.11249999999999993 4.9635 0.13649999999999995 Z" fill="#ffffff" fill-rule="nonzero"></path></g><g></g><g clip-path="url(&quot;#SvgjsClipPath1023&quot;)"><path d=" M -0.8466190438965548 0.10088095610344522 L -0.9742228443731581 -0.026722844373157972 L -1.548445688746316 0.5475 L -0.9742228443731581 1.121722844373158 L -0.8466190438965548 0.9941190438965548 L -1.2932380877931098 0.5475 Z" fill="#ffffff" transform="matrix(1,0,0,1,0,0)" fill-rule="nonzero"></path><path d=" M -0.7190152434199517 0.2284847565800484 L -0.40000000000000013 0.5475 L -0.7190152434199517 0.8665152434199518 L -1.0380304868399033 0.5475 Z" fill="#ffffff" transform="matrix(1,0,0,1,0,0)" fill-rule="nonzero"></path></g></g><defs><clipPath id="SvgjsClipPath1023"><path d=" M -1.548445688746316 -0.026722844373157972 h 1.148445688746316 v 1.148445688746316 h -1.148445688746316 Z"></path></clipPath></defs></svg>